<?xml version="1.0" standalone="no"?>
<!DOCTYPE svg PUBLIC "-//W3C//DTD SVG 20010904//EN"
 "http://www.w3.org/TR/2001/REC-SVG-20010904/DTD/svg10.dtd">
<svg version="1.0" xmlns="http://www.w3.org/2000/svg"
 width="512.000000pt" height="512.000000pt" viewBox="0 0 512.000000 512.000000"
 preserveAspectRatio="xMidYMid meet">

<g transform="translate(0.000000,512.000000) scale(0.100000,-0.100000)"
fill="#000000" stroke="none">
<path d="M850 5102 c-20 -16 -24 -31 -28 -100 l-5 -82 -69 0 c-38 0 -78 -4
-88 -10 -28 -15 -40 -61 -25 -97 16 -38 30 -43 116 -43 l69 0 0 -110 0 -110
-69 0 c-86 0 -100 -5 -116 -43 -15 -36 -3 -82 25 -97 10 -6 50 -10 89 -10 l71
0 0 -120 0 -120 -65 0 c-35 0 -75 -5 -89 -11 -41 -19 -48 -52 -44 -234 3 -161
4 -167 27 -186 22 -18 45 -19 446 -19 l423 0 318 -223 c175 -123 319 -228 321
-233 1 -5 -134 -105 -301 -221 l-303 -212 -60 10 c-159 28 -330 -64 -399 -214
-26 -54 -29 -73 -29 -157 0 -82 4 -103 27 -152 34 -73 107 -146 181 -183 69
-33 177 -44 255 -25 l50 12 291 -204 c159 -112 289 -207 288 -212 -2 -5 -146
-110 -321 -233 l-318 -223 -423 0 c-401 0 -424 -1 -446 -19 l-24 -19 0 -274
c0 -239 2 -280 18 -326 25 -69 102 -153 174 -188 49 -24 72 -28 181 -33 l126
-6 11 -45 c27 -104 119 -222 213 -273 171 -93 398 -66 536 62 61 57 93 108
122 191 l23 65 532 0 531 0 18 -57 c25 -81 61 -138 125 -196 116 -106 265
-144 423 -107 85 20 135 48 200 108 63 60 97 115 122 195 l18 57 124 6 c109 5
132 9 181 33 72 35 149 119 174 188 16 46 18 87 18 326 l0 274 -24 19 c-22 18
-45 19 -445 19 l-423 0 -321 226 c-177 124 -322 228 -321 232 0 4 131 99 291
210 l291 204 43 -12 c72 -20 191 -9 260 25 75 37 148 110 182 183 23 49 27 70
27 152 0 82 -4 103 -27 152 -73 155 -241 247 -400 219 l-60 -10 -303 212
c-167 117 -304 215 -305 219 0 4 145 108 322 232 l321 226 423 0 c400 0 423 1
445 19 23 19 24 25 27 186 4 182 -3 215 -44 234 -14 6 -54 11 -89 11 l-65 0 0
120 0 120 71 0 c39 0 79 4 89 10 28 15 40 61 25 97 -16 38 -30 43 -116 43
l-69 0 0 110 0 110 69 0 c86 0 100 5 116 43 15 36 3 82 -25 97 -10 6 -50 10
-89 10 l-71 0 0 59 c0 69 -15 118 -40 131 -30 16 -64 12 -88 -10 -19 -18 -22
-31 -22 -100 l0 -80 -200 0 -200 0 0 59 c0 100 -24 141 -84 141 -49 0 -66 -31
-66 -120 l0 -80 -1040 0 -1040 0 0 80 c0 89 -17 120 -66 120 -60 0 -84 -41
-84 -141 l0 -59 -200 0 -200 0 0 80 c0 69 -3 82 -22 100 -27 25 -69 26 -98 2z
m520 -442 l0 -110 -200 0 -200 0 0 110 0 110 200 0 200 0 0 -110z m2230 0 l0
-110 -1040 0 -1040 0 0 110 0 110 1040 0 1040 0 0 -110z m550 0 l0 -110 -200
0 -200 0 0 110 0 110 200 0 200 0 0 -110z m-2780 -380 l0 -120 -200 0 -200 0
0 120 0 120 200 0 200 0 0 -120z m2230 0 l0 -120 -710 0 -711 0 -24 -25 c-31
-30 -32 -71 -3 -102 l21 -23 917 0 c504 0 992 -3 1083 -7 l167 -6 0 -69 0 -68
-1780 0 -1780 0 0 75 0 75 552 0 552 0 23 22 c31 29 30 72 -2 103 -24 25 -26
25 -205 25 l-180 0 0 120 0 120 1040 0 1040 0 0 -120z m550 0 l0 -120 -200 0
-200 0 0 120 0 120 200 0 200 0 0 -120z m-1915 -707 l194 -137 -61 -43 c-34
-24 -65 -43 -69 -43 -6 0 -485 333 -503 351 -6 5 41 9 117 9 l128 0 194 -137z
m569 128 c-5 -4 -62 -45 -126 -91 l-118 -82 -117 83 c-65 45 -122 86 -127 90
-6 5 102 9 244 9 144 0 250 -4 244 -9z m521 0 c-9 -8 -1217 -858 -1454 -1023
-46 -32 -87 -58 -91 -58 -4 0 -12 11 -18 24 -6 13 -24 39 -40 57 l-29 34 691
487 691 486 130 1 c78 1 125 -3 120 -8z m-197 -756 l299 -209 -39 -49 c-21
-27 -38 -53 -38 -58 0 -5 -4 -9 -9 -9 -14 0 -636 440 -636 450 0 10 107 90
117 87 5 -1 142 -96 306 -212z m-209 -218 c189 -134 344 -247 344 -252 -1 -13
-684 -494 -701 -495 -8 0 -68 38 -135 85 -66 47 -131 88 -145 92 -54 13 -106
-73 -70 -118 7 -9 256 -187 553 -394 297 -208 547 -384 555 -392 12 -11 -6
-13 -112 -13 l-126 0 -686 482 c-667 468 -686 482 -671 502 8 12 25 40 38 63
l22 43 103 -70 c57 -39 111 -70 121 -70 34 0 71 39 71 74 0 43 -8 51 -128 136
-71 50 -100 76 -93 83 29 29 688 486 701 486 8 0 170 -109 359 -242z m439
-439 c12 -24 29 -53 37 -64 15 -21 9 -26 -279 -228 l-295 -207 -58 41 c-32 23
-58 45 -58 50 0 8 611 447 626 449 3 1 15 -18 27 -41z m-991 -731 l62 -43
-195 -138 -195 -137 -126 3 -126 3 253 178 c139 97 256 177 259 177 4 0 35
-19 68 -43z m321 -224 l125 -88 -126 -3 c-70 -1 -184 -1 -253 0 l-126 3 124
87 c67 48 125 87 127 88 2 0 60 -39 129 -87z m1652 -447 c0 -217 -4 -243 -48
-289 -44 -46 -61 -52 -179 -57 l-113 -5 -6 30 c-10 48 -60 147 -93 183 -40 43
-90 45 -121 5 -27 -35 -22 -63 24 -131 39 -59 51 -115 43 -201 -13 -151 -144
-271 -294 -271 -123 0 -229 63 -280 168 -24 49 -28 69 -28 142 0 73 4 92 27
136 48 91 155 164 240 164 77 0 123 49 102 109 -19 54 -99 62 -218 21 -141
-48 -257 -173 -295 -317 l-12 -43 -529 0 -529 0 -12 42 c-55 206 -228 338
-443 338 -216 0 -379 -119 -442 -324 l-18 -58 -106 4 c-120 4 -153 17 -197 75
l-28 36 -3 224 -3 223 1780 0 1781 0 0 -204z m-2663 -141 c64 -19 136 -81 171
-149 23 -44 27 -63 27 -141 0 -74 -4 -97 -23 -132 -33 -63 -74 -106 -134 -139
-48 -26 -62 -29 -143 -29 -99 0 -140 15 -211 77 -122 108 -126 325 -7 442 80
79 202 106 320 71z"/>
<path d="M3495 505 c-14 -13 -25 -36 -25 -50 0 -33 42 -75 75 -75 33 0 75 41
75 73 0 68 -78 100 -125 52z"/>
<path d="M1521 504 c-12 -15 -21 -38 -21 -51 0 -32 42 -73 75 -73 33 0 75 42
75 75 0 14 -11 37 -25 50 -33 34 -77 33 -104 -1z"/>
</g>
</svg>
